<svg width="68" height="68" viewBox="0 0 68 68" fill="none" xmlns="http://www.w3.org/2000/svg">
<g filter="url(#filter0_d_758_725)">
<circle cx="34" cy="30" r="29.5" stroke="url(#paint0_linear_758_725)" shape-rendering="crispEdges"/>
</g>
<path d="M43.5029 28.9121L29.4998 19.1208C29.2998 19.1208 29.1997 19 28.9998 19C28.3997 19 27.9996 19.4835 27.9996 20.2087V39.7913C27.9996 40.5166 28.3997 41 28.9998 41C29.1999 41 29.2999 41 29.5 40.8792L43.5031 31.0879C43.7032 30.9671 43.8031 30.8461 43.9031 30.6045C44.103 30 44.0031 29.2747 43.5029 28.9121H43.5029Z" fill="url(#paint1_linear_758_725)"/>
<defs>
<filter id="filter0_d_758_725" x="0" y="0" width="68" height="68" filterUnits="userSpaceOnUse" color-interpolation-filters="sRGB">
<feFlood flood-opacity="0" result="BackgroundImageFix"/>
<feColorMatrix in="SourceAlpha" type="matrix" values="0 0 0 0 0 0 0 0 0 0 0 0 0 0 0 0 0 0 127 0" result="hardAlpha"/>
<feOffset dy="4"/>
<feGaussianBlur stdDeviation="2"/>
<feComposite in2="hardAlpha" operator="out"/>
<feColorMatrix type="matrix" values="0 0 0 0 0 0 0 0 0 0 0 0 0 0 0 0 0 0 0.25 0"/>
<feBlend mode="normal" in2="BackgroundImageFix" result="effect1_dropShadow_758_725"/>
<feBlend mode="normal" in="SourceGraphic" in2="effect1_dropShadow_758_725" result="shape"/>
</filter>
<linearGradient id="paint0_linear_758_725" x1="34" y1="0" x2="34" y2="60" gradientUnits="userSpaceOnUse">
<stop stop-color="#E61E82"/>
<stop offset="1" stop-color="#8833CB"/>
</linearGradient>
<linearGradient id="paint1_linear_758_725" x1="35.9996" y1="19" x2="35.9996" y2="41" gradientUnits="userSpaceOnUse">
<stop stop-color="#E61E82"/>
<stop offset="1" stop-color="#8833CB"/>
</linearGradient>
</defs>
</svg>
