<svg width="269" height="62" viewBox="0 0 269 62" fill="none" xmlns="http://www.w3.org/2000/svg">
<path d="M69.5273 28V8.4H72.9433V28H69.5273ZM82.593 8.4L92.253 20.72V8.4H95.669V28H92.253V25.844L78.589 8.4H82.593ZM75.789 28V8.4H79.205V28H75.789ZM98.2382 28V8.4H117.082V11.984H101.654V16.324H115.514V18.34H101.654V28H98.2382ZM132.892 28L127.18 21.728H123.064V28H119.648V8.4H128.72C130.662 8.4 132.314 8.71733 133.676 9.352C135.058 9.968 136.094 10.78 136.784 11.788C137.494 12.796 137.848 13.8693 137.848 15.008C137.848 15.96 137.606 16.8747 137.12 17.752C136.635 18.6107 135.916 19.376 134.964 20.048C134.012 20.7013 132.864 21.168 131.52 21.448L137.652 28H132.892ZM128.72 18.312C129.896 18.312 130.895 18.1627 131.716 17.864C132.556 17.5653 133.182 17.1827 133.592 16.716C134.022 16.2307 134.236 15.708 134.236 15.148C134.236 14.6067 134.022 14.1027 133.592 13.636C133.182 13.1507 132.556 12.7587 131.716 12.46C130.895 12.1613 129.896 12.012 128.72 12.012H123.064V18.312H128.72ZM139.035 28L145.615 8.4H149.339L142.759 28H139.035ZM152.643 8.4L159.755 28H156.031L148.919 8.4H152.643ZM143.095 21.392V19.376H154.379V21.392H143.095ZM163.66 21.084C164.388 22.26 165.517 23.156 167.048 23.772C168.597 24.388 170.212 24.696 171.892 24.696C173.404 24.696 174.673 24.4627 175.7 23.996C176.727 23.5107 177.24 22.8573 177.24 22.036C177.24 21.4573 176.988 21.0187 176.484 20.72C175.98 20.4027 175.345 20.188 174.58 20.076C173.815 19.9453 172.732 19.824 171.332 19.712C169.26 19.5627 167.552 19.348 166.208 19.068C164.864 18.788 163.707 18.2187 162.736 17.36C161.784 16.4827 161.308 15.2133 161.308 13.552C161.308 12.5067 161.7 11.5827 162.484 10.78C163.287 9.95867 164.341 9.324 165.648 8.876C166.955 8.40933 168.355 8.176 169.848 8.176C171.845 8.176 173.721 8.596 175.476 9.436C177.231 10.276 178.603 11.5453 179.592 13.244L176.54 15.064C175.831 13.9253 174.851 13.0947 173.6 12.572C172.349 12.0493 171.024 11.788 169.624 11.788C168.765 11.788 167.963 11.872 167.216 12.04C166.469 12.208 165.863 12.432 165.396 12.712C164.948 12.992 164.724 13.272 164.724 13.552C164.724 14.056 164.957 14.448 165.424 14.728C165.909 14.9893 166.507 15.176 167.216 15.288C167.944 15.4 168.971 15.512 170.296 15.624C172.424 15.792 174.179 16.0253 175.56 16.324C176.941 16.6227 178.136 17.22 179.144 18.116C180.152 18.9933 180.656 20.3 180.656 22.036C180.656 23.3613 180.236 24.5 179.396 25.452C178.575 26.3853 177.473 27.0947 176.092 27.58C174.729 28.0653 173.245 28.308 171.64 28.308C169.363 28.308 167.207 27.8507 165.172 26.936C163.156 26.0213 161.653 24.7147 160.664 23.016L163.66 21.084ZM183.223 8.4H192.295C194.311 8.4 196.037 8.74533 197.475 9.436C198.931 10.108 200.023 10.9947 200.751 12.096C201.479 13.1973 201.843 14.3733 201.843 15.624C201.843 16.8747 201.479 18.0507 200.751 19.152C200.023 20.2533 198.931 21.1493 197.475 21.84C196.037 22.512 194.311 22.848 192.295 22.848H186.639V28H183.223V8.4ZM192.295 19.152C193.545 19.152 194.609 18.984 195.487 18.648C196.364 18.312 197.027 17.8733 197.475 17.332C197.923 16.772 198.147 16.184 198.147 15.568C198.147 14.952 197.923 14.3733 197.475 13.832C197.027 13.272 196.364 12.824 195.487 12.488C194.609 12.152 193.545 11.984 192.295 11.984H186.639V19.152H192.295ZM201.023 28L207.603 8.4H211.327L204.747 28H201.023ZM214.631 8.4L221.743 28H218.019L210.907 8.4H214.631ZM205.083 21.392V19.376H216.367V21.392H205.083ZM245.508 21.196C244.481 23.548 242.932 25.3213 240.86 26.516C238.806 27.692 236.557 28.28 234.112 28.28C232.096 28.28 230.182 27.888 228.372 27.104C226.58 26.3013 225.124 25.172 224.004 23.716C222.902 22.2413 222.352 20.5333 222.352 18.592C222.352 16.4453 222.893 14.5787 223.976 12.992C225.058 11.4053 226.477 10.2013 228.232 9.38C230.005 8.54 231.89 8.12 233.888 8.12C236.314 8.12 238.573 8.74533 240.664 9.996C242.773 11.228 244.388 13.048 245.508 15.456L242.344 16.996C241.522 15.3533 240.328 14.112 238.76 13.272C237.21 12.4133 235.54 11.984 233.748 11.984C232.348 11.984 231.032 12.2453 229.8 12.768C228.586 13.2907 227.606 14.056 226.86 15.064C226.132 16.0533 225.768 17.2293 225.768 18.592C225.768 19.712 226.16 20.72 226.944 21.616C227.746 22.4933 228.792 23.184 230.08 23.688C231.386 24.192 232.749 24.444 234.168 24.444C235.922 24.444 237.537 24.052 239.012 23.268C240.486 22.4653 241.597 21.2613 242.344 19.656L245.508 21.196ZM266.926 28.028H248.082V8.4H266.926V11.984H251.498V16.324H265.33V18.34H251.498V24.388H266.926V28.028Z" fill="white"/>
<path d="M70.3593 53.84C70.946 54.68 71.7793 55.32 72.8593 55.76C73.9393 56.2 75.0726 56.42 76.2593 56.42C77.4993 56.42 78.5526 56.1867 79.4193 55.72C80.286 55.24 80.7193 54.58 80.7193 53.74C80.7193 53.18 80.5126 52.7533 80.0993 52.46C79.686 52.1533 79.1726 51.94 78.5593 51.82C77.946 51.7 77.0993 51.5867 76.0193 51.48C74.6726 51.3467 73.586 51.1867 72.7593 51C71.946 50.8133 71.246 50.46 70.6593 49.94C70.0726 49.42 69.7793 48.6667 69.7793 47.68C69.7793 46.9333 70.026 46.2667 70.5193 45.68C71.0126 45.0933 71.666 44.64 72.4793 44.32C73.306 44 74.1926 43.84 75.1393 43.84C76.3793 43.84 77.5593 44.12 78.6793 44.68C79.7993 45.24 80.6993 46.0867 81.3793 47.22L79.9793 48.06C79.4193 47.2333 78.7193 46.6267 77.8793 46.24C77.0393 45.84 76.1593 45.64 75.2393 45.64C74.5993 45.64 73.9926 45.7333 73.4193 45.92C72.8593 46.1067 72.4126 46.36 72.0793 46.68C71.746 46.9867 71.5793 47.32 71.5793 47.68C71.5793 48.1867 71.7726 48.58 72.1593 48.86C72.546 49.1267 73.0326 49.32 73.6193 49.44C74.206 49.5467 75.006 49.6533 76.0193 49.76C77.3926 49.9067 78.4993 50.08 79.3393 50.28C80.1793 50.4667 80.8993 50.8333 81.4993 51.38C82.0993 51.9267 82.3993 52.7133 82.3993 53.74C82.3993 54.6867 82.126 55.5 81.5793 56.18C81.0326 56.8467 80.306 57.3533 79.3993 57.7C78.4926 58.0467 77.4993 58.22 76.4193 58.22C74.966 58.22 73.5726 57.9133 72.2393 57.3C70.906 56.6867 69.8793 55.8067 69.1593 54.66L70.3593 53.84ZM89.7566 58H84.4166V44.4H86.1166V56.36H89.7566V58ZM89.0966 48.8H83.4366V48H89.0966V48.8ZM100.035 58V53.42C99.7819 54.3667 99.3752 55.2067 98.8152 55.94C98.2686 56.66 97.6486 57.22 96.9552 57.62C96.2619 58.0067 95.5686 58.2 94.8752 58.2C94.1686 58.2 93.5219 57.98 92.9352 57.54C92.3486 57.1 91.8752 56.4133 91.5152 55.48C91.1686 54.5467 90.9952 53.3733 90.9952 51.96V48H92.6952V51.96C92.6952 53.04 92.8486 53.96 93.1552 54.72C93.4619 55.4667 93.8619 56.0267 94.3552 56.4C94.8619 56.7733 95.4152 56.96 96.0152 56.96C96.6819 56.96 97.3219 56.7267 97.9352 56.26C98.5619 55.78 99.0686 55.08 99.4552 54.16C99.8419 53.24 100.035 52.1533 100.035 50.9V48H101.735V58H100.035ZM112.793 58V44H114.493V58H112.793ZM103.573 53C103.573 51.8933 103.8 50.9467 104.253 50.16C104.707 49.3733 105.3 48.78 106.033 48.38C106.767 47.98 107.553 47.78 108.393 47.78C109.22 47.78 110 47.98 110.733 48.38C111.467 48.78 112.06 49.3733 112.513 50.16C112.967 50.9467 113.193 51.8933 113.193 53C113.193 54.08 112.96 55.0133 112.493 55.8C112.027 56.5867 111.413 57.1867 110.653 57.6C109.893 58 109.093 58.2 108.253 58.2C107.44 58.2 106.673 58.0067 105.953 57.62C105.247 57.2333 104.673 56.6467 104.233 55.86C103.793 55.0733 103.573 54.12 103.573 53ZM105.173 53C105.173 53.7067 105.353 54.3133 105.713 54.82C106.073 55.3267 106.54 55.7067 107.113 55.96C107.7 56.2133 108.327 56.34 108.993 56.34C109.647 56.34 110.26 56.2133 110.833 55.96C111.42 55.7067 111.893 55.3267 112.253 54.82C112.613 54.3133 112.793 53.7067 112.793 53C112.793 52.28 112.613 51.6667 112.253 51.16C111.893 50.6533 111.42 50.2733 110.833 50.02C110.26 49.7533 109.647 49.62 108.993 49.62C108.327 49.62 107.7 49.7533 107.113 50.02C106.54 50.2733 106.073 50.6533 105.713 51.16C105.353 51.6667 105.173 52.28 105.173 53ZM116.327 58V48H118.027V58H116.327ZM117.167 47.24C116.927 47.24 116.734 47.1267 116.587 46.9C116.454 46.66 116.387 46.38 116.387 46.06C116.387 45.74 116.454 45.4667 116.587 45.24C116.734 45.0133 116.927 44.9 117.167 44.9C117.407 44.9 117.594 45.0133 117.727 45.24C117.874 45.4667 117.947 45.74 117.947 46.06C117.947 46.38 117.874 46.66 117.727 46.9C117.594 47.1267 117.407 47.24 117.167 47.24ZM130.302 53C130.302 52.28 130.096 51.6667 129.682 51.16C129.269 50.6533 128.722 50.2733 128.042 50.02C127.376 49.7667 126.656 49.64 125.882 49.64C125.122 49.64 124.402 49.7667 123.722 50.02C123.056 50.2733 122.509 50.66 122.082 51.18C121.669 51.6867 121.462 52.2933 121.462 53C121.462 53.72 121.669 54.3333 122.082 54.84C122.509 55.3467 123.056 55.7333 123.722 56C124.402 56.2533 125.122 56.38 125.882 56.38C126.656 56.38 127.376 56.2533 128.042 56C128.722 55.7333 129.269 55.3467 129.682 54.84C130.096 54.3333 130.302 53.72 130.302 53ZM131.902 53C131.902 54.1067 131.616 55.0533 131.042 55.84C130.482 56.6133 129.742 57.2 128.822 57.6C127.902 58 126.922 58.2 125.882 58.2C124.842 58.2 123.862 58 122.942 57.6C122.022 57.2 121.276 56.6133 120.702 55.84C120.142 55.0533 119.862 54.1067 119.862 53C119.862 51.8933 120.142 50.9533 120.702 50.18C121.276 49.3933 122.022 48.8 122.942 48.4C123.862 48 124.842 47.8 125.882 47.8C126.922 47.8 127.902 48 128.822 48.4C129.742 48.8 130.482 49.3933 131.042 50.18C131.616 50.9533 131.902 51.8933 131.902 53ZM134.719 54.22C135.252 54.94 135.932 55.4733 136.759 55.82C137.585 56.1667 138.439 56.34 139.319 56.34C140.225 56.34 140.999 56.18 141.639 55.86C142.279 55.54 142.599 55.1267 142.599 54.62C142.599 54.1133 142.405 53.7667 142.019 53.58C141.632 53.3933 141.079 53.3 140.359 53.3C140.039 53.3 139.745 53.3067 139.479 53.32C139.212 53.3333 138.985 53.3467 138.799 53.36C138.025 53.4133 137.452 53.44 137.079 53.44C136.012 53.44 135.179 53.2667 134.579 52.92C133.979 52.5733 133.679 51.9267 133.679 50.98C133.679 50.34 133.865 49.78 134.239 49.3C134.612 48.82 135.112 48.4533 135.739 48.2C136.379 47.9333 137.079 47.8 137.839 47.8C138.772 47.8 139.705 48.0067 140.639 48.42C141.585 48.82 142.439 49.4267 143.199 50.24L142.019 51.32C141.392 50.7467 140.712 50.3267 139.979 50.06C139.245 49.7933 138.532 49.66 137.839 49.66C137.092 49.66 136.459 49.7933 135.939 50.06C135.419 50.3133 135.159 50.62 135.159 50.98C135.159 51.34 135.305 51.5933 135.599 51.74C135.905 51.8733 136.339 51.94 136.899 51.94C137.192 51.94 137.725 51.9133 138.499 51.86C139.192 51.7933 139.825 51.76 140.399 51.76C141.532 51.76 142.425 51.9667 143.079 52.38C143.745 52.78 144.079 53.5267 144.079 54.62C144.079 55.3533 143.859 55.9933 143.419 56.54C142.992 57.0733 142.412 57.4867 141.679 57.78C140.945 58.06 140.152 58.2 139.299 58.2C138.139 58.2 137.019 57.9333 135.939 57.4C134.872 56.8667 134.012 56.0867 133.359 55.06L134.719 54.22Z" fill="white"/>
<path d="M33.9675 49.6411C31.8078 50.9494 30.2315 51.8529 30.2315 51.8529L36.8536 53.7288L45.2451 47.223L52.0095 36.9518L53.6162 34.5417C53.6162 34.5417 46.4653 38.532 44.5004 41.0376C43.0777 42.8517 43.6352 45.6002 41.6027 47.4536C39.2267 49.6204 36.6947 47.9889 33.9675 49.6411Z" fill="url(#paint0_linear_758_564)" fill-opacity="0.2" stroke="url(#paint1_linear_758_564)" stroke-width="0.02"/>
<path d="M36.6578 47.6043C34.4937 48.9079 30.2627 51.8432 30.2627 51.8432L35.0731 53.0454L40.3667 50.4165L48.767 43.9201L51.9126 36.9835L53.6062 34.5286C53.6062 34.5286 49.3833 37.3605 47.2573 38.8361C45.007 40.3979 46.7008 42.4727 44.6679 44.3256C42.2912 46.4917 39.3906 45.9582 36.6578 47.6043Z" fill="url(#paint2_linear_758_564)" fill-opacity="0.15" stroke="url(#paint3_linear_758_564)" stroke-width="0.02"/>
<path d="M16.989 42.2621C15.8502 46.6344 12.9728 46.7892 12.9728 46.7892L10.9244 43.6836L11.0793 28.2568L16.5564 21.7303L23.3124 15.6651L37.8952 14.4413C37.8952 14.4413 44.9505 19.7821 43.2121 20.3586C41.4738 20.9351 37.0228 26.3869 32.962 27.922C27.478 29.9952 21.1397 27.7087 19.1311 29.5893C16.6673 31.896 18.1277 37.8897 16.989 42.2621Z" fill="url(#paint4_linear_758_564)" fill-opacity="0.15" stroke="url(#paint5_linear_758_564)" stroke-width="0.02"/>
<path d="M19.9147 38.9312C16.2183 46.6458 13.0346 46.747 13.0346 46.747L10.002 31.9542L18.5046 18.9043L26.7818 15.6193L35.3763 14.5907L44.4954 18.7491C44.4954 18.7491 42.5237 20.4056 37.5847 23.6692C32.6458 26.9327 24.4961 19.9762 21.17 23.1892C17.8439 26.4021 23.611 31.2166 19.9147 38.9312Z" fill="url(#paint6_linear_758_564)" fill-opacity="0.15" stroke="url(#paint7_linear_758_564)" stroke-width="0.02"/>
<path d="M51.9334 41.5709C51.0097 43.4519 48.0727 50.4925 40.9042 54.2626C34.5115 57.6247 21.021 57.3154 21.1492 55.2448C21.2775 53.1742 28.7433 48.48 40.3225 36.3819C51.9017 24.2839 58.9074 9.64637 58.6471 7.73493C58.3869 5.82349 53.0707 5.92393 53.2203 5.42883C53.3699 4.93374 57.5483 4.77643 60.0545 6.25343C62.5607 7.73044 53.2443 26.3221 41.4508 39.9108C32.3072 50.4462 30.6504 51.7006 30.3692 51.7873C31.1499 52.0303 41.585 53.6173 49.2371 40.6712C57.1896 27.2171 52.8571 39.69 51.9334 41.5709Z" fill="url(#paint8_linear_758_564)"/>
<path fill-rule="evenodd" clip-rule="evenodd" d="M12.6071 46.8093C9.27003 46.2542 6.95792 33.8924 9.75291 26.0562C13.5372 15.4464 23.6457 11.7879 31.1231 12.102C37.2119 12.3577 47.177 15.6725 46.199 21.814C45.221 27.9556 20.5406 48.6033 20.5406 48.6033C20.5406 48.6033 4.72335 62.2346 3.18252 61.7598C1.64169 61.2851 1.43881 60.2684 2.2669 60.747C2.30073 60.7666 2.3327 60.7877 2.36445 60.8086C3.11009 61.3006 3.73366 61.712 25.315 40.1404C25.315 40.1404 40.3506 24.3469 41.0002 21.5205C41.6498 18.694 29.8202 11.3694 18.3936 20.8663C10.7943 27.1822 12.2194 36.8171 13.0451 42.3997C13.461 45.2114 13.7248 46.9952 12.6071 46.8093Z" fill="url(#paint9_linear_758_564)"/>
<defs>
<linearGradient id="paint0_linear_758_564" x1="39.8653" y1="43.6712" x2="47.7792" y2="51.6854" gradientUnits="userSpaceOnUse">
<stop stop-color="#DF1F87"/>
<stop offset="1" stop-color="#9B2FBC"/>
</linearGradient>
<linearGradient id="paint1_linear_758_564" x1="40.1837" y1="42.9092" x2="44.743" y2="47.6978" gradientUnits="userSpaceOnUse">
<stop stop-color="#E61E82"/>
<stop offset="1" stop-color="#9D2EBA"/>
</linearGradient>
<linearGradient id="paint2_linear_758_564" x1="38.5291" y1="42.7421" x2="46.5572" y2="52.9503" gradientUnits="userSpaceOnUse">
<stop stop-color="#AF2AAD"/>
<stop offset="1" stop-color="#C3269D"/>
</linearGradient>
<linearGradient id="paint3_linear_758_564" x1="39.8718" y1="42.7518" x2="44.6867" y2="47.8089" gradientUnits="userSpaceOnUse">
<stop stop-color="#E61E82"/>
<stop offset="1" stop-color="#9D2EBA"/>
</linearGradient>
<linearGradient id="paint4_linear_758_564" x1="5.97532" y1="18.3181" x2="26.9872" y2="32.4161" gradientUnits="userSpaceOnUse">
<stop stop-color="#E01F86"/>
<stop offset="1" stop-color="#A12DB7"/>
</linearGradient>
<linearGradient id="paint5_linear_758_564" x1="17.5902" y1="20.8022" x2="28.8706" y2="33.3672" gradientUnits="userSpaceOnUse">
<stop stop-color="#E61E82"/>
<stop offset="1" stop-color="#9B2FBC"/>
</linearGradient>
<linearGradient id="paint6_linear_758_564" x1="13.3639" y1="16.3826" x2="20.2478" y2="24.863" gradientUnits="userSpaceOnUse">
<stop stop-color="#E31E84"/>
<stop offset="1" stop-color="#9C2EBB"/>
</linearGradient>
<linearGradient id="paint7_linear_758_564" x1="16.5941" y1="20.6195" x2="28.418" y2="33.7899" gradientUnits="userSpaceOnUse">
<stop stop-color="#E61E82"/>
<stop offset="1" stop-color="#9B2FBC"/>
</linearGradient>
<linearGradient id="paint8_linear_758_564" x1="40.7743" y1="5.49447" x2="45.1258" y2="66.4133" gradientUnits="userSpaceOnUse">
<stop stop-color="#E61E82"/>
<stop offset="1" stop-color="#8833CB"/>
</linearGradient>
<linearGradient id="paint9_linear_758_564" x1="22.5326" y1="24.1273" x2="25.2145" y2="54.1591" gradientUnits="userSpaceOnUse">
<stop stop-color="#E61E82"/>
<stop offset="1" stop-color="#8833CB"/>
</linearGradient>
</defs>
</svg>
