<svg width="26" height="26" viewBox="0 0 26 26" fill="none" xmlns="http://www.w3.org/2000/svg">
<path d="M20.8201 18.5901V18.5902C20.8211 20.0292 20.2422 21.3846 19.1859 22.4081C18.1305 23.4308 16.7299 23.9943 15.2379 23.9943C12.1532 23.9943 9.65484 21.5645 9.65484 18.5911V14.9821C11.5802 14.809 13.2428 13.7636 14.4314 12.3355C15.6576 10.8622 16.3919 8.96741 16.3919 7.16314C16.3919 5.26637 15.6305 3.48383 14.2528 2.14664L14.2527 2.14654C14.1375 2.03493 13.9817 1.97131 13.8195 1.97131H13.5324C13.3586 1.61599 13.0411 1.3367 12.6972 1.14297C12.311 0.925403 11.8647 0.800129 11.4855 0.800129C10.5018 0.800129 9.69135 1.57678 9.69135 2.54588C9.69135 3.51407 10.5019 4.29064 11.4855 4.29064C11.8542 4.29064 12.285 4.1712 12.662 3.96449C12.9989 3.77975 13.3124 3.51436 13.4971 3.17781H13.5589C14.5939 4.26668 15.1596 5.67259 15.1596 7.16297C15.1596 8.72771 14.5098 10.3947 13.4199 11.67C12.3312 12.9439 10.8172 13.8117 9.09551 13.8117C7.3738 13.8117 5.8598 12.9439 4.77107 11.67C3.68118 10.3948 3.0314 8.72775 3.0314 7.16297C3.0314 5.6805 3.59224 4.28055 4.61801 3.19183H4.76728C4.95437 3.5241 5.26665 3.78616 5.60181 3.96868C5.97647 4.1727 6.40349 4.29051 6.76994 4.29051C7.75448 4.29051 8.56507 3.51402 8.56507 2.54575C8.56507 1.57652 7.75451 0.8 6.76994 0.8C6.38855 0.8 5.93818 0.926903 5.54951 1.14729C5.20369 1.34338 4.88475 1.6263 4.71384 1.98642L4.35591 1.98667C4.35589 1.98667 4.35587 1.98667 4.35586 1.98667C4.35583 1.98667 4.3558 1.98667 4.35577 1.98667C4.19416 1.9867 4.03681 2.04998 3.92101 2.16355C2.55493 3.49968 1.8 5.27589 1.8 7.16268C1.8 8.94884 2.52018 10.8243 3.72482 12.2914C4.89264 13.7137 6.52728 14.7656 8.42397 14.9709V18.5902C8.42397 22.2411 11.4875 25.2 15.2395 25.2C17.0543 25.2 18.7649 24.5127 20.0541 23.2646L20.0541 23.2646C21.3424 22.0162 22.053 20.3555 22.053 18.5902V17.2087C23.275 16.9366 24.2 15.8794 24.2 14.6005C24.2002 13.1135 22.9546 11.9161 21.4368 11.9161C19.9191 11.9161 18.6721 13.1135 18.6721 14.6004C18.6721 15.8793 19.5979 16.9374 20.8201 17.2087V18.5901ZM11.4855 3.08336C11.1702 3.08336 10.9238 2.83575 10.9238 2.54527C10.9238 2.25363 11.1703 2.00619 11.4855 2.00619C11.6913 2.00619 11.9432 2.09313 12.1456 2.22263C12.2455 2.28649 12.3246 2.35532 12.3766 2.41921C12.431 2.48612 12.441 2.52907 12.441 2.54527C12.441 2.56153 12.431 2.60443 12.3767 2.67118C12.3249 2.73494 12.2458 2.80363 12.1461 2.86735C11.9439 2.99656 11.692 3.08336 11.4855 3.08336ZM6.76949 2.00502C7.08584 2.00502 7.33218 2.25264 7.33218 2.54411C7.33218 2.8344 7.08602 3.0822 6.76949 3.0822C6.56355 3.0822 6.3116 2.99542 6.1092 2.86617C6.00939 2.80243 5.93024 2.73372 5.87831 2.66994C5.82393 2.60315 5.81398 2.56028 5.81398 2.54411C5.81398 2.5279 5.82396 2.48495 5.87838 2.41804C5.93034 2.35415 6.00953 2.28532 6.10934 2.22146C6.31179 2.09196 6.56369 2.00502 6.76949 2.00502ZM21.4364 16.0768C20.5858 16.0768 19.904 15.408 19.904 14.599C19.904 13.7901 20.5856 13.1213 21.4364 13.1213C22.2868 13.1213 22.9677 13.7898 22.9677 14.599C22.9677 15.4082 22.287 16.0768 21.4364 16.0768Z" fill="#656565" stroke="#656565" stroke-width="0.4"/>
</svg>
