<svg width="26" height="26" viewBox="0 0 26 26" fill="none" xmlns="http://www.w3.org/2000/svg">
<path fill-rule="evenodd" clip-rule="evenodd" d="M12.9974 2.91797C7.42852 2.91797 2.91406 7.43243 2.91406 13.0013C2.91406 15.2123 3.62504 17.2563 4.8317 18.9183C6.08831 17.0401 7.93772 15.6389 9.98824 14.932C8.73035 14.0067 7.91406 12.516 7.91406 10.8346C7.91406 8.02719 10.1899 5.7513 12.9974 5.7513C15.8048 5.7513 18.0807 8.02719 18.0807 10.8346C18.0807 12.516 17.2645 14.0067 16.0066 14.932C18.0571 15.6389 19.9065 17.04 21.1631 18.9183C22.3698 17.2562 23.0807 15.2123 23.0807 13.0013C23.0807 7.43243 18.5663 2.91797 12.9974 2.91797ZM20.1452 20.1134C18.5986 17.5313 15.7795 15.918 12.9974 15.918C10.2154 15.918 7.39621 17.5314 5.84963 20.1135C7.67656 21.9495 10.2038 23.0846 12.9974 23.0846C15.791 23.0846 18.3183 21.9495 20.1452 20.1134ZM1.41406 13.0013C1.41406 6.604 6.6001 1.41797 12.9974 1.41797C19.3947 1.41797 24.5807 6.604 24.5807 13.0013C24.5807 16.1282 23.3408 18.967 21.3273 21.0503C19.222 23.2286 16.2674 24.5846 12.9974 24.5846C9.72738 24.5846 6.77276 23.2286 4.66745 21.0503C2.65402 18.967 1.41406 16.1282 1.41406 13.0013ZM12.9974 7.2513C11.0184 7.2513 9.41406 8.85562 9.41406 10.8346C9.41406 12.8137 11.0184 14.418 12.9974 14.418C14.9764 14.418 16.5807 12.8137 16.5807 10.8346C16.5807 8.85562 14.9764 7.2513 12.9974 7.2513Z" fill="#656565"/>
</svg>
