<svg width="26" height="26" viewBox="0 0 26 26" fill="none" xmlns="http://www.w3.org/2000/svg">
<path fill-rule="evenodd" clip-rule="evenodd" d="M15.2601 10.4501C15.1221 10.4501 15.0101 10.3381 15.0101 10.2001L15.0101 3.04114C15.0101 2.9691 15.0393 2.91205 15.0745 2.87797C15.1062 2.84732 15.1386 2.83706 15.1764 2.84121C15.9662 2.92778 16.7412 3.12602 17.4781 3.43123C18.4983 3.85382 19.4253 4.47321 20.2061 5.25406C20.987 6.0349 21.6064 6.96189 22.029 7.98211C22.3342 8.71896 22.5324 9.49402 22.619 10.2838C22.6231 10.3216 22.6129 10.3539 22.5822 10.3857C22.5481 10.4209 22.4911 10.4501 22.4191 10.4501L15.2601 10.4501ZM13.5101 10.2001C13.5101 11.1666 14.2936 11.9501 15.2601 11.9501L22.4191 11.9501C23.3606 11.9501 24.2249 11.1683 24.11 10.1203C24.008 9.1897 23.7744 8.27638 23.4148 7.40808C22.9168 6.20588 22.1869 5.11352 21.2668 4.1934C20.3467 3.27327 19.2543 2.54338 18.0521 2.04541C17.1838 1.68575 16.2705 1.45216 15.3399 1.35014C14.2919 1.23526 13.5101 2.09963 13.5101 3.04114L13.5101 10.2001ZM10.2895 5.89391C10.3273 5.88976 10.3597 5.90002 10.3914 5.93068C10.4267 5.96477 10.4558 6.02181 10.4558 6.09384V13.2528C10.4558 14.2193 11.2393 15.0028 12.2058 15.0028H19.3647C19.4368 15.0028 19.4938 15.0319 19.5279 15.0672C19.5586 15.0989 19.5688 15.1312 19.5647 15.1691C19.4179 16.5081 18.9509 17.7971 18.1976 18.9245C17.2736 20.3074 15.9603 21.3852 14.4238 22.0216C12.8872 22.6581 11.1965 22.8246 9.56531 22.5001C7.93413 22.1757 6.43581 21.3748 5.2598 20.1988C4.08379 19.0228 3.28291 17.5244 2.95845 15.8933C2.63399 14.2621 2.80052 12.5713 3.43697 11.0348C4.07342 9.49828 5.15122 8.18499 6.53406 7.261C7.66151 6.50766 8.95047 6.04069 10.2895 5.89391ZM11.9558 6.09384C11.9558 5.15232 11.174 4.28796 10.126 4.40284C8.54817 4.57581 7.02929 5.12606 5.7007 6.0138C4.07119 7.1026 2.80113 8.65017 2.05115 10.4608C1.30117 12.2714 1.10494 14.2638 1.48728 16.1859C1.86961 18.108 2.81335 19.8736 4.19914 21.2594C5.58493 22.6452 7.35053 23.589 9.27267 23.9713C11.1948 24.3536 13.1872 24.1574 14.9978 23.4074C16.8084 22.6574 18.356 21.3874 19.4448 19.7579C20.3325 18.4293 20.8828 16.9104 21.0557 15.3325C21.1706 14.2845 20.3063 13.5028 19.3647 13.5028H12.2058C12.0677 13.5028 11.9558 13.3908 11.9558 13.2528V6.09384Z" fill="#656565"/>
</svg>
