<svg width="26" height="26" viewBox="0 0 26 26" fill="none" xmlns="http://www.w3.org/2000/svg">
<path fill-rule="evenodd" clip-rule="evenodd" d="M18.3667 2.5H18.3362H18.3362C17.8021 2.49999 17.3562 2.49998 16.992 2.52974C16.6121 2.56078 16.2555 2.62789 15.9182 2.79973C15.4007 3.06339 14.9801 3.48408 14.7164 4.00153C14.5446 4.33879 14.4774 4.69545 14.4464 5.07533C14.4166 5.43957 14.4167 5.88541 14.4167 6.41957V6.45V7.63334V7.66377C14.4167 8.19792 14.4166 8.64377 14.4464 9.00801C14.4774 9.38789 14.5446 9.74455 14.7164 10.0818C14.9801 10.5993 15.4007 11.0199 15.9182 11.2836C16.2555 11.4554 16.6121 11.5226 16.992 11.5536C17.3562 11.5834 17.8021 11.5833 18.3362 11.5833H18.3363H18.3667H19.55H19.5804H19.5804C20.1146 11.5833 20.5604 11.5834 20.9247 11.5536C21.3046 11.5226 21.6612 11.4554 21.9985 11.2836C22.5159 11.0199 22.9366 10.5993 23.2003 10.0818C23.3721 9.74455 23.4392 9.38789 23.4703 9.008C23.5 8.64376 23.5 8.19791 23.5 7.66374V7.63333V6.45V6.4196C23.5 5.88543 23.5 5.43957 23.4703 5.07533C23.4392 4.69545 23.3721 4.33879 23.2003 4.00153C22.9366 3.48408 22.5159 3.06339 21.9985 2.79973C21.6612 2.62789 21.3046 2.56078 20.9247 2.52974C20.5604 2.49998 20.1146 2.49999 19.5804 2.5H19.55H18.3667ZM16.5992 4.13624C16.6897 4.0901 16.827 4.04822 17.1141 4.02476C17.41 4.00058 17.7942 4 18.3667 4H19.55C20.1224 4 20.5066 4.00058 20.8025 4.02476C21.0896 4.04822 21.2269 4.0901 21.3175 4.13624C21.5527 4.25608 21.7439 4.44731 21.8638 4.68251C21.9099 4.77307 21.9518 4.91036 21.9752 5.19748C21.9994 5.49336 22 5.87757 22 6.45V7.63333C22 8.20576 21.9994 8.58998 21.9752 8.88586C21.9518 9.17298 21.9099 9.31026 21.8638 9.40082C21.7439 9.63603 21.5527 9.82725 21.3175 9.94709C21.2269 9.99324 21.0896 10.0351 20.8025 10.0586C20.5066 10.0828 20.1224 10.0833 19.55 10.0833H18.3667C17.7942 10.0833 17.41 10.0828 17.1141 10.0586C16.827 10.0351 16.6897 9.99324 16.5992 9.94709C16.364 9.82725 16.1728 9.63603 16.0529 9.40082C16.0068 9.31026 15.9649 9.17298 15.9414 8.88586C15.9173 8.58998 15.9167 8.20576 15.9167 7.63334V6.45C15.9167 5.87757 15.9173 5.49336 15.9414 5.19748C15.9649 4.91036 16.0068 4.77307 16.0529 4.68251C16.1728 4.44731 16.364 4.25608 16.5992 4.13624ZM6.45 2.5H6.41957H6.41955C5.8854 2.49999 5.43956 2.49998 5.07533 2.52974C4.69545 2.56078 4.33879 2.62789 4.00153 2.79973C3.48408 3.06339 3.06339 3.48408 2.79973 4.00153C2.62789 4.33879 2.56078 4.69545 2.52974 5.07533C2.49998 5.43956 2.49999 5.88541 2.5 6.41955V6.41957V6.45V7.63334V7.66377V7.66378C2.49999 8.19793 2.49998 8.64377 2.52974 9.00801C2.56078 9.38789 2.62789 9.74455 2.79973 10.0818C3.06339 10.5993 3.48408 11.0199 4.00153 11.2836C4.33879 11.4554 4.69545 11.5226 5.07533 11.5536C5.43956 11.5834 5.88541 11.5833 6.41956 11.5833H6.4196H6.45H7.63334H7.66374H7.66378C8.19793 11.5833 8.64377 11.5834 9.00801 11.5536C9.38789 11.5226 9.74455 11.4554 10.0818 11.2836C10.5993 11.0199 11.0199 10.5993 11.2836 10.0818C11.4554 9.74455 11.5226 9.38789 11.5536 9.008C11.5834 8.64377 11.5833 8.19793 11.5833 7.66378V7.66374V7.63333V6.45V6.4196V6.41955C11.5833 5.88541 11.5834 5.43956 11.5536 5.07533C11.5226 4.69545 11.4554 4.33879 11.2836 4.00153C11.0199 3.48408 10.5993 3.06339 10.0818 2.79973C9.74455 2.62789 9.38789 2.56078 9.008 2.52974C8.64377 2.49998 8.19793 2.49999 7.66378 2.5H7.66377H7.63333H6.45ZM4.68251 4.13624C4.77307 4.0901 4.91036 4.04822 5.19748 4.02476C5.49336 4.00058 5.87757 4 6.45 4H7.63333C8.20576 4 8.58998 4.00058 8.88586 4.02476C9.17298 4.04822 9.31026 4.0901 9.40082 4.13624C9.63603 4.25608 9.82725 4.44731 9.94709 4.68251C9.99324 4.77307 10.0351 4.91036 10.0586 5.19748C10.0828 5.49336 10.0833 5.87757 10.0833 6.45V7.63333C10.0833 8.20576 10.0828 8.58998 10.0586 8.88586C10.0351 9.17298 9.99324 9.31026 9.94709 9.40082C9.82725 9.63603 9.63603 9.82725 9.40082 9.94709C9.31026 9.99324 9.17298 10.0351 8.88586 10.0586C8.58998 10.0828 8.20576 10.0833 7.63334 10.0833H6.45C5.87757 10.0833 5.49336 10.0828 5.19748 10.0586C4.91036 10.0351 4.77307 9.99324 4.68251 9.94709C4.44731 9.82725 4.25608 9.63603 4.13624 9.40082C4.0901 9.31026 4.04822 9.17298 4.02476 8.88586C4.00058 8.58998 4 8.20576 4 7.63334V6.45C4 5.87757 4.00058 5.49336 4.02476 5.19748C4.04822 4.91036 4.0901 4.77307 4.13624 4.68251C4.25608 4.44731 4.44731 4.25608 4.68251 4.13624ZM6.41957 14.4167H6.45H7.63333H7.66377C8.19792 14.4167 8.64377 14.4166 9.008 14.4464C9.38789 14.4774 9.74455 14.5446 10.0818 14.7164C10.5993 14.9801 11.0199 15.4007 11.2836 15.9182C11.4554 16.2555 11.5226 16.6121 11.5536 16.992C11.5834 17.3562 11.5833 17.8021 11.5833 18.3362V18.3363V18.3667V19.55V19.5804V19.5804C11.5833 20.1146 11.5834 20.5604 11.5536 20.9247C11.5226 21.3046 11.4554 21.6612 11.2836 21.9985C11.0199 22.5159 10.5993 22.9366 10.0818 23.2003C9.74455 23.3721 9.38789 23.4392 9.00801 23.4703C8.64376 23.5 8.19791 23.5 7.66374 23.5H7.63334H6.45H6.4196C5.88543 23.5 5.43957 23.5 5.07533 23.4703C4.69545 23.4392 4.33879 23.3721 4.00153 23.2003C3.48408 22.9366 3.06339 22.5159 2.79973 21.9985C2.62789 21.6612 2.56078 21.3046 2.52974 20.9247C2.49998 20.5604 2.49999 20.1146 2.5 19.5804V19.55V18.3667V18.3362V18.3362C2.49999 17.8021 2.49998 17.3562 2.52974 16.992C2.56078 16.6121 2.62789 16.2555 2.79973 15.9182C3.06339 15.4007 3.48408 14.9801 4.00153 14.7164C4.33879 14.5446 4.69545 14.4774 5.07533 14.4464C5.43956 14.4166 5.88541 14.4167 6.41957 14.4167ZM5.19748 15.9414C4.91036 15.9649 4.77307 16.0068 4.68251 16.0529C4.44731 16.1728 4.25608 16.364 4.13624 16.5992C4.0901 16.6897 4.04822 16.827 4.02476 17.1141C4.00058 17.41 4 17.7942 4 18.3667V19.55C4 20.1224 4.00058 20.5066 4.02476 20.8025C4.04822 21.0896 4.0901 21.2269 4.13624 21.3175C4.25608 21.5527 4.44731 21.7439 4.68251 21.8638C4.77307 21.9099 4.91036 21.9518 5.19748 21.9752C5.49336 21.9994 5.87757 22 6.45 22H7.63334C8.20576 22 8.58998 21.9994 8.88586 21.9752C9.17298 21.9518 9.31026 21.9099 9.40082 21.8638C9.63603 21.7439 9.82725 21.5527 9.94709 21.3175C9.99324 21.2269 10.0351 21.0896 10.0586 20.8025C10.0828 20.5066 10.0833 20.1224 10.0833 19.55V18.3667C10.0833 17.7942 10.0828 17.41 10.0586 17.1141C10.0351 16.827 9.99324 16.6897 9.94709 16.5992C9.82725 16.364 9.63603 16.1728 9.40082 16.0529C9.31026 16.0068 9.17298 15.9649 8.88586 15.9414C8.58998 15.9173 8.20576 15.9167 7.63333 15.9167H6.45C5.87757 15.9167 5.49336 15.9173 5.19748 15.9414ZM18.3667 14.4167H18.3362C17.8021 14.4167 17.3562 14.4166 16.992 14.4464C16.6121 14.4774 16.2555 14.5446 15.9182 14.7164C15.4007 14.9801 14.9801 15.4007 14.7164 15.9182C14.5446 16.2555 14.4774 16.6121 14.4464 16.992C14.4166 17.3562 14.4167 17.8021 14.4167 18.3362V18.3667V19.55V19.5804C14.4167 20.1146 14.4166 20.5604 14.4464 20.9247C14.4774 21.3046 14.5446 21.6612 14.7164 21.9985C14.9801 22.5159 15.4007 22.9366 15.9182 23.2003C16.2555 23.3721 16.6121 23.4392 16.992 23.4703C17.3562 23.5 17.8021 23.5 18.3363 23.5H18.3667H19.55H19.5804C20.1146 23.5 20.5604 23.5 20.9247 23.4703C21.3046 23.4392 21.6612 23.3721 21.9985 23.2003C22.5159 22.9366 22.9366 22.5159 23.2003 21.9985C23.3721 21.6612 23.4392 21.3046 23.4703 20.9247C23.5 20.5604 23.5 20.1146 23.5 19.5804V19.55V18.3667V18.3363C23.5 17.8021 23.5 17.3562 23.4703 16.992C23.4392 16.6121 23.3721 16.2555 23.2003 15.9182C22.9366 15.4007 22.5159 14.9801 21.9985 14.7164C21.6612 14.5446 21.3046 14.4774 20.9247 14.4464C20.5604 14.4166 20.1146 14.4167 19.5804 14.4167H19.55H18.3667ZM16.5992 16.0529C16.6897 16.0068 16.827 15.9649 17.1141 15.9414C17.41 15.9173 17.7942 15.9167 18.3667 15.9167H19.55C20.1224 15.9167 20.5066 15.9173 20.8025 15.9414C21.0896 15.9649 21.2269 16.0068 21.3175 16.0529C21.5527 16.1728 21.7439 16.364 21.8638 16.5992C21.9099 16.6897 21.9518 16.827 21.9752 17.1141C21.9994 17.41 22 17.7942 22 18.3667V19.55C22 20.1224 21.9994 20.5066 21.9752 20.8025C21.9518 21.0896 21.9099 21.2269 21.8638 21.3175C21.7439 21.5527 21.5527 21.7439 21.3175 21.8638C21.2269 21.9099 21.0896 21.9518 20.8025 21.9752C20.5066 21.9994 20.1224 22 19.55 22H18.3667C17.7942 22 17.41 21.9994 17.1141 21.9752C16.827 21.9518 16.6897 21.9099 16.5992 21.8638C16.364 21.7439 16.1728 21.5527 16.0529 21.3175C16.0068 21.2269 15.9649 21.0896 15.9414 20.8025C15.9173 20.5066 15.9167 20.1224 15.9167 19.55V18.3667C15.9167 17.7942 15.9173 17.41 15.9414 17.1141C15.9649 16.827 16.0068 16.6897 16.0529 16.5992C16.1728 16.364 16.364 16.1728 16.5992 16.0529Z" fill="#5E4BA0"/>
</svg>
