<svg width="26" height="26" viewBox="0 0 26 26" fill="none" xmlns="http://www.w3.org/2000/svg">
<path fill-rule="evenodd" clip-rule="evenodd" d="M12.6283 1.29297C6.37011 1.29297 1.29688 6.36621 1.29688 12.6244C1.29688 18.8825 6.37011 23.9558 12.6283 23.9558C18.8864 23.9558 23.9597 18.8825 23.9597 12.6244C23.9597 6.36621 18.8864 1.29297 12.6283 1.29297ZM2.79688 12.6244C2.79688 7.19464 7.19854 2.79297 12.6283 2.79297C18.058 2.79297 22.4597 7.19464 22.4597 12.6244C22.4597 18.0541 18.058 22.4558 12.6283 22.4558C7.19854 22.4558 2.79688 18.0541 2.79688 12.6244ZM11.1736 15.0392V15.1966H13.3605V15.0392C13.3649 14.6115 13.4196 14.2524 13.5247 13.9619C13.6341 13.6674 13.8005 13.4112 14.0238 13.1933C14.2515 12.9754 14.5426 12.7656 14.8972 12.5638C15.3 12.3419 15.6481 12.0897 15.9414 11.8073C16.2348 11.5249 16.4602 11.2021 16.6178 10.8389C16.7798 10.4758 16.8608 10.0643 16.8608 9.60428C16.8608 8.92239 16.6813 8.3333 16.3223 7.83701C15.9677 7.33669 15.4708 6.95136 14.8316 6.68103C14.1967 6.41069 13.4612 6.27553 12.625 6.27553C11.8588 6.27553 11.1583 6.40464 10.5235 6.66287C9.89303 6.9211 9.38517 7.30845 8.99989 7.82491C8.619 8.34137 8.4176 8.98291 8.39571 9.74953H10.7336C10.7555 9.37026 10.8562 9.05756 11.0357 8.81143C11.2196 8.56127 11.4495 8.37567 11.7253 8.25462C12.0055 8.12954 12.301 8.067 12.6119 8.067C12.949 8.067 13.2532 8.13156 13.5247 8.26067C13.8005 8.38979 14.0194 8.57136 14.1814 8.80538C14.3434 9.0394 14.4244 9.31579 14.4244 9.63454C14.4244 9.91698 14.3631 10.1732 14.2405 10.4032C14.1179 10.6291 13.9494 10.8349 13.7348 11.0205C13.5247 11.2021 13.2861 11.3695 13.019 11.5229C12.6294 11.7448 12.2988 11.9889 12.0274 12.2552C11.7559 12.5174 11.5458 12.8644 11.3969 13.2962C11.2524 13.7279 11.178 14.3089 11.1736 15.0392ZM11.2984 18.5859C11.583 18.8441 11.9223 18.9732 12.3163 18.9732C12.579 18.9732 12.8176 18.9147 13.0322 18.7977C13.2511 18.6766 13.4262 18.5152 13.5575 18.3135C13.6933 18.1118 13.7611 17.8878 13.7611 17.6417C13.7611 17.2786 13.6166 16.9679 13.3277 16.7097C13.0431 16.4514 12.706 16.3223 12.3163 16.3223C11.9223 16.3223 11.583 16.4514 11.2984 16.7097C11.0138 16.9679 10.8715 17.2786 10.8715 17.6417C10.8715 18.0129 11.0138 18.3276 11.2984 18.5859Z" fill="#656565"/>
</svg>
