<svg width="120" height="120" viewBox="0 0 120 120" fill="none" xmlns="http://www.w3.org/2000/svg">
<path d="M6.41233 68.9672C3.32532 69.4838 0.375747 67.3991 0.152628 64.2771C-0.40066 56.5353 0.552283 48.7409 2.9785 41.3305C5.99401 32.1204 11.1956 23.7777 18.1384 17.0162C25.0811 10.2547 33.5584 5.27557 42.8451 2.5047C50.317 0.275307 58.1339 -0.471163 65.8584 0.286678C68.9734 0.592285 70.9793 3.59596 70.3813 6.66823C69.7833 9.74049 66.8061 11.7112 63.6852 11.4742C57.7683 11.0248 51.8025 11.6603 46.0858 13.366C38.5534 15.6134 31.6776 19.652 26.0464 25.1362C20.4151 30.6204 16.1962 37.3871 13.7503 44.8573C11.894 50.527 11.101 56.4738 11.3937 62.4005C11.5481 65.5266 9.49933 68.4507 6.41233 68.9672Z" fill="#2AB1D7"/>
<path d="M70.733 5.60037C71.2196 3.13409 73.6197 1.51219 76.042 2.1843C83.3687 4.21721 90.2562 7.62827 96.3294 12.2488C102.403 16.8694 107.527 22.5973 111.441 29.1162C112.735 31.2714 111.812 34.0173 109.565 35.1441C107.318 36.271 104.6 35.3498 103.277 33.2123C100.005 27.9264 95.7853 23.2733 90.8174 19.4938C85.8495 15.7142 80.2394 12.8886 74.2723 11.1454C71.8593 10.4405 70.2464 8.06666 70.733 5.60037Z" fill="#F5A55B"/>
<path d="M110.765 34.3181C112.297 33.5432 114.175 34.154 114.87 35.7238C119.253 45.632 120.873 56.5445 119.554 67.2987C119.346 69.0026 117.726 70.1324 116.035 69.8356C114.344 69.5388 113.224 67.9279 113.422 66.2228C114.521 56.793 113.103 47.2384 109.314 38.5339C108.629 36.9599 109.233 35.093 110.765 34.3181Z" fill="#FFA6BD"/>
</svg>
