<svg width="26" height="26" viewBox="0 0 26 26" fill="none" xmlns="http://www.w3.org/2000/svg">
<path d="M1 7.2V11.4875C1 12.6076 1 13.1677 1.21799 13.5955C1.40973 13.9718 1.71569 14.2778 2.09202 14.4695C2.51984 14.6875 3.07989 14.6875 4.2 14.6875H7.3C8.4201 14.6875 8.98016 14.6875 9.40798 14.4695C9.78431 14.2778 10.0903 13.9718 10.282 13.5955C10.5 13.1677 10.5 12.6076 10.5 11.4875V7.2C10.5 6.0799 10.5 5.51984 10.282 5.09202C10.0903 4.71569 9.78431 4.40973 9.40798 4.21799C8.98016 4 8.4201 4 7.3 4H4.2C3.0799 4 2.51984 4 2.09202 4.21799C1.71569 4.40973 1.40973 4.71569 1.21799 5.09202C1 5.51984 1 6.07989 1 7.2Z" stroke="#656565" stroke-width="1.5"/>
<path d="M14.0625 19.8V15.5125C14.0625 14.3924 14.0625 13.8323 14.2805 13.4045C14.4722 13.0282 14.7782 12.7222 15.1545 12.5305C15.5823 12.3125 16.1424 12.3125 17.2625 12.3125H21.55C22.6701 12.3125 23.2302 12.3125 23.658 12.5305C24.0343 12.7222 24.3403 13.0282 24.532 13.4045C24.75 13.8323 24.75 14.3924 24.75 15.5125V19.8C24.75 20.9201 24.75 21.4802 24.532 21.908C24.3403 22.2843 24.0343 22.5903 23.658 22.782C23.2302 23 22.6701 23 21.55 23H17.2625C16.1424 23 15.5823 23 15.1545 22.782C14.7782 22.5903 14.4722 22.2843 14.2805 21.908C14.0625 21.4802 14.0625 20.9201 14.0625 19.8Z" stroke="#656565" stroke-width="1.5"/>
<path d="M8.125 18.25H3.375C3.02665 18.25 2.85247 18.25 2.70654 18.2716C1.83513 18.4009 1.15091 19.0851 1.02165 19.9565C1 20.1025 1 20.2766 1 20.625C1 20.9734 1 21.1475 1.02165 21.2935C1.15091 22.1649 1.83513 22.8491 2.70654 22.9784C2.85247 23 3.02665 23 3.375 23H8.125C8.47335 23 8.64753 23 8.79346 22.9784C9.66487 22.8491 10.3491 22.1649 10.4784 21.2935C10.5 21.1475 10.5 20.9734 10.5 20.625C10.5 20.2766 10.5 20.1025 10.4784 19.9565C10.3491 19.0851 9.66487 18.4009 8.79346 18.2716C8.64753 18.25 8.47335 18.25 8.125 18.25Z" stroke="#656565" stroke-width="1.5"/>
<path d="M22.375 8.75H16.4375C16.0891 8.75 15.915 8.75 15.769 8.72835C14.8976 8.59909 14.2134 7.91487 14.0841 7.04346C14.0625 6.89753 14.0625 6.72335 14.0625 6.375C14.0625 6.02665 14.0625 5.85247 14.0841 5.70654C14.2134 4.83513 14.8976 4.15091 15.769 4.02165C15.915 4 16.0891 4 16.4375 4H22.375C22.7234 4 22.8975 4 23.0435 4.02165C23.9149 4.15091 24.5991 4.83513 24.7284 5.70654C24.75 5.85247 24.75 6.02665 24.75 6.375C24.75 6.72335 24.75 6.89753 24.7284 7.04346C24.5991 7.91487 23.9149 8.59909 23.0435 8.72835C22.8975 8.75 22.7234 8.75 22.375 8.75Z" stroke="#656565" stroke-width="1.5"/>
</svg>
